<?xml version="1.0" encoding="UTF-8" standalone="no"?>
<!-- Created with Inkscape (http://www.inkscape.org/) -->

<svg
   xmlns:dc="http://purl.org/dc/elements/1.1/"
   xmlns:cc="http://creativecommons.org/ns#"
   xmlns:rdf="http://www.w3.org/1999/02/22-rdf-syntax-ns#"
   xmlns:svg="http://www.w3.org/2000/svg"
   xmlns="http://www.w3.org/2000/svg"
   xmlns:sodipodi="http://sodipodi.sourceforge.net/DTD/sodipodi-0.dtd"
   xmlns:inkscape="http://www.inkscape.org/namespaces/inkscape"
   id="svg7276"
   version="1.1"
   inkscape:version="0.91 r13725"
   width="1256.25"
   height="1280"
   viewBox="0 0 1256.25 1280"
   sodipodi:docname="elpida.svg">
  <metadata
     id="metadata7282">
    <rdf:RDF>
      <cc:Work
         rdf:about="">
        <dc:format>image/svg+xml</dc:format>
        <dc:type
           rdf:resource="http://purl.org/dc/dcmitype/StillImage" />
        <dc:title></dc:title>
      </cc:Work>
    </rdf:RDF>
  </metadata>
  <defs
     id="defs7280" />
  <sodipodi:namedview
     pagecolor="#ffffff"
     bordercolor="#666666"
     borderopacity="1"
     objecttolerance="10"
     gridtolerance="10"
     guidetolerance="10"
     inkscape:pageopacity="0"
     inkscape:pageshadow="2"
     inkscape:window-width="1127"
     inkscape:window-height="707"
     id="namedview7278"
     showgrid="false"
     inkscape:zoom="0.36"
     inkscape:cx="706.10513"
     inkscape:cy="667.69772"
     inkscape:window-x="0"
     inkscape:window-y="0"
     inkscape:window-maximized="0"
     inkscape:current-layer="svg7276" />
  <g
     inkscape:groupmode="layer"
     id="layer3"
     inkscape:label="Layer 1" />
  <path
     style="color:#000000;font-style:normal;font-variant:normal;font-weight:normal;font-stretch:normal;font-size:medium;line-height:normal;font-family:sans-serif;text-indent:0;text-align:start;text-decoration:none;text-decoration-line:none;text-decoration-style:solid;text-decoration-color:#000000;letter-spacing:normal;word-spacing:normal;text-transform:none;direction:ltr;block-progression:tb;writing-mode:lr-tb;baseline-shift:baseline;text-anchor:start;white-space:normal;clip-rule:nonzero;display:inline;overflow:visible;visibility:visible;opacity:1;isolation:auto;mix-blend-mode:normal;color-interpolation:sRGB;color-interpolation-filters:linearRGB;solid-color:#000000;solid-opacity:1;fill:#000000;fill-opacity:1;fill-rule:nonzero;stroke:#000000;stroke-width:29.33394814;stroke-linecap:butt;stroke-linejoin:round;stroke-miterlimit:4;stroke-dasharray:none;stroke-dashoffset:0;stroke-opacity:1;color-rendering:auto;image-rendering:auto;shape-rendering:auto;text-rendering:auto;enable-background:accumulate"
     d="M 636.71653,72.140412 454.20164,432.51622 c 0.36459,0.32237 0.72391,0.6521 1.08641,0.97762 L 636.70584,75.288503 843.54057,492.16997 c 0.33694,-0.3811 0.67667,-0.74694 1.03035,-1.09139 z M 453.88667,433.1403 l -0.0115,0.0215 c 0.0192,0.009 -30.54756,50.005 -30.52606,50.0157 0.41109,0.20146 31.36294,-49.5603 31.76741,-49.34211 l 0.0267,-0.0492 c -0.49651,-0.26043 -28.77833,55.02825 -29.03502,54.90996 z m 390.9832,61.26776 c 0.10955,-0.0482 -0.21856,0.0846 -0.18684,0.0676 l 0.005,0.009 c 0.0725,-0.0317 0.10724,-0.0444 0.18152,-0.0768 z M 1067.763,940.92579 c -0.1979,0.20701 -0.3847,0.42727 -0.5766,0.64253 0.2685,-0.0535 0.5376,-0.10897 0.8008,-0.18754 z m 0.6726,4.53153 124.6903,251.31488 -1121.491199,-5.752 44.160619,-87.1963 c -0.41653,-0.2168 -0.84983,-0.4276 -1.24923,-0.658 l -45.284384,89.4161 1.185164,0.011 1125.03863,5.7704 -125.2988,-252.54464 c -0.6611,-0.0232 -1.2034,-0.13459 -1.7511,-0.35663 z"
     id="path7441"
     inkscape:connector-curvature="0"
     sodipodi:nodetypes="cccccccccccccccccccccccccccccccccc" />
  <path
     style="fill:#000000"
     d="m 994.76183,-0.18054026 c 0.18225,0.4820958 0.36482,0.96369836 0.54591,1.44506796 0,-0.1420556 5.1e-4,-0.28608421 0,-0.42816724 -0.17992,-0.33995797 -0.36025,-0.67717567 -0.54056,-1.01690072 z M 1337.4803,121.55009 c -0.048,0.0218 -0.096,0.0358 -0.1444,0.0536 0.1233,0.21299 0.2459,0.42657 0.3692,0.63957 0.8663,0.75886 2.7927,1.53592 3.0908,1.5414 0,-0.0189 -3e-4,-0.0374 0.014,-0.0562 -0.027,-0.0218 -0.052,-0.0436 -0.1069,-0.0776 -1.085,-0.68357 -2.1544,-1.39008 -3.222,-2.1007 z M 422.98188,516.62807 c -3.57723,0 -16.80542,3.12604 -19.81611,4.68308 -1.99415,1.0311 -5.85414,4.16835 -8.57672,6.97377 -5.43026,5.5956 -8.6264,15.15481 -7.2949,21.81246 l 0.75464,3.78124 -11.44813,0 c -6.38132,0 -19.70965,-1.42153 -30.10818,-3.21125 -22.26991,-3.833 -30.12977,-3.99665 -40.27985,-0.83761 -19.36375,6.02667 -33.38001,23.37252 -35.73055,44.21631 -0.46495,4.12316 0.27586,13.58734 1.91873,24.50723 1.47178,9.78434 2.67603,17.95252 2.67603,18.1516 0,0.1991 -2.45652,0.99076 -5.45912,1.76085 -3.00253,0.77015 -8.78271,4.0263 -12.84502,7.23602 -6.69034,5.28629 -7.38589,6.30085 -7.38589,10.7577 0,3.3043 0.85148,5.68927 2.59309,7.26548 2.5825,2.33706 2.57556,2.36423 -1.76352,5.94081 -2.91812,2.40552 -4.82293,5.4353 -5.7642,9.17349 -1.24696,4.95257 -2.09576,5.88844 -7.54644,8.31179 -3.37881,1.50213 -9.32336,3.71001 -13.20897,4.90519 -25.87905,7.96038 -46.76377,25.08241 -65.30621,53.54233 -3.61854,5.55406 -6.86243,8.91178 -10.09939,10.45531 -5.6416,2.69034 -10.11623,6.17047 -22.73301,17.67795 -5.15631,4.70299 -12.25751,10.0121 -15.78332,11.79869 -10.073437,5.10463 -18.381759,16.1362 -18.381759,24.4082 0,1.70266 -0.980195,5.33533 -2.175624,8.07096 -2.494756,5.70796 -5.958267,13.60748 -6.280084,55.34135 -0.122627,15.89588 2.255654,31.19998 1.744196,31.98604 -1.372602,2.10921 -4.884163,42.72119 -4.626892,53.50486 l 1.047317,-0.64329 -0.08659,1.58526 c 4.518624,-23.36855 0.272547,22.27885 -0.628878,26.33229 -2.124916,9.09008 -2.31357,11.92874 -0.677039,10.21178 0.639798,-0.6711 1.769379,-5.19777 2.510129,-10.05926 1.153681,-7.57141 2.140042,-9.77934 6.866734,-15.38458 6.183229,-7.33277 11.298262,-16.63833 11.298262,-20.5547 0,-4.19209 10.25132,-36.60086 13.10995,-41.44659 4.00485,-6.78758 0.89021,-0.63502 1.55651,0.98847 0.78135,1.90382 -0.66473,-5.95477 0.13808,3.39265 0.26152,3.04494 1.54915,3.13754 3.07948,9.97586 2.62833,11.74438 0.55459,31.30334 -6.52956,61.59187 -2.14817,9.1843 -4.1189,17.85462 -4.37801,19.26752 -0.29192,1.5923 -3.23924,4.0053 -7.749826,6.3476 -9.689391,5.0314 -14.003262,11.1446 -15.930494,22.5697 -1.423735,8.4418 -1.339951,9.2152 1.519987,14.3998 1.662591,3.0138 4.612478,6.2428 6.556316,7.1745 3.210145,1.5387 4.150291,1.3395 10.254597,-2.1649 3.69644,-2.122 9.46791,-7.136 12.82362,-11.1404 5.58178,-6.6603 6.10138,-7.8535 6.10138,-14.0305 0,-7.7245 2.70692,-12.2058 8.94066,-14.7878 2.96917,-1.2298 4.22923,-2.8696 5.31196,-6.9176 0.78045,-2.9181 1.9387,-6.63275 2.57435,-8.25558 0.63544,-1.62283 1.15605,-13.80276 1.15605,-27.06821 0,-27.21568 2.42798,-45.91124 6.75434,-52.00359 5.92892,-8.34911 15.45166,-18.15324 21.49936,-22.13625 15.58469,-10.26378 26.39626,-20.05877 40.10856,-36.33534 l 4.7366,-5.62505 4.01138,3.37449 c 2.20568,1.85596 4.79775,3.37449 5.76153,3.37449 3.05972,0 3.53395,2.60147 1.88661,10.36434 -1.32736,6.25491 -2.80687,8.88531 -8.60616,15.2936 -3.85233,4.2568 -7.65086,7.7418 -8.44024,7.7418 -3.258,0 -15.03921,8.44137 -17.08656,12.2429 -1.80635,3.35439 -2.01414,5.57599 -1.15069,12.30178 1.50517,11.72425 0.94895,25.73476 -1.96957,49.58712 -1.56197,12.76607 -3.59623,23.45411 -5.25576,27.61679 -2.46627,6.18631 -3.45228,15.84541 -2.2559,22.08271 0.35181,1.8339 -1.38485,3.5401 -6.92828,6.8079 -5.67795,3.347 -8.09645,5.7637 -10.4125,10.3991 -5.83565,11.6789 -5.41946,16.5642 2.08197,24.3413 6.48985,6.7283 10.17855,5.8927 19.84823,-4.4958 9.33151,-10.0253 11.93515,-14.7805 11.93515,-21.8097 0,-3.4353 1.20753,-6.8681 3.78393,-10.7577 5.31134,-8.0186 6.95583,-16.3759 5.27717,-26.80063 -1.15724,-7.1869 -1.26787,-16.99257 -1.54235,-22.54524 -0.65177,3.50764 0.58724,-8.84187 1.98656,-12.95785 2.1534,-8.29506 7.09119,-20.97449 11.73714,-30.14298 3.67061,-7.24359 8.12096,-10.70977 23.73653,-18.49147 10.49318,-5.22908 13.87317,-7.80233 24.38412,-18.54767 8.25698,-8.44113 14.8193,-13.86744 20.29513,-16.78416 4.45087,-2.37063 9.24606,-5.92601 10.65334,-7.90236 2.19192,-3.07829 4.82128,-14.1103 9.70869,-40.72406 0.54063,-2.94368 0.7184,-2.9767 10.45264,-1.92675 5.44737,0.5875 18.0008,1.07042 27.89509,1.07042 17.37196,0 18.23212,-0.13071 25.04779,-3.72774 3.88202,-2.04881 12.25885,-6.30771 18.61725,-9.46517 6.35834,-3.15731 16.07703,-9.13984 21.59568,-13.2946 5.51859,-4.15481 10.59399,-7.55447 11.27953,-7.55447 0.68578,0 3.29407,0.85733 5.79632,1.90266 3.89114,1.62593 4.41326,2.3227 3.59929,4.81689 -0.52335,1.60388 -1.04233,3.97369 -1.15071,5.26646 -0.11783,1.40563 -2.26502,3.2751 -5.34406,4.65363 -6.01018,2.6909 -10.16246,7.51254 -12.13051,14.08136 -2.13175,7.11531 1.54304,18.71441 6.97913,22.0292 5.89113,3.59205 8.71939,3.10939 16.08303,-2.75364 l 6.57772,-5.2397 -0.80549,5.88195 c -0.93954,6.85475 2.21622,16.7183 5.99434,18.74034 4.43299,2.37235 11.65017,1.39184 18.47007,-2.51013 8.32396,-4.76231 11.81719,-8.4731 14.03319,-14.90289 1.54491,-4.48231 2.28293,-5.12747 6.26997,-5.46984 2.88522,-0.24787 5.71135,-1.64127 7.81672,-3.85351 1.8138,-1.90596 8.88523,-14.27031 15.71375,-27.47763 6.82874,-13.20752 14.26738,-26.15563 16.52993,-28.77285 3.73437,-4.3202 4.53567,-4.6771 8.69714,-3.89632 l 4.58407,0.85902 -1.07577,5.76687 c -1.40983,7.54615 -0.0737,10.71333 7.74448,18.36838 12.49468,12.23447 17.36178,10.87179 24.72651,1.53561 6.04575,-2.93467 2.16836,-6.89902 6.18717,-13.51091 3.26157,-7.19355 2.21222,-6.74408 1.37548,-13.33474 -0.9048,-7.12667 -5.18987,-32.42398 -2.62788,-35.51113 -0.54127,-9.83838 -0.47675,-14.65566 1.90535,-22.97117 1.76607,-6.09477 3.21126,-11.80426 3.21126,-12.68713 0,-0.88292 1.14535,-3.74412 2.54491,-6.35561 3.48153,-6.49576 3.5373,-10.6378 0.2569,-19.34513 -1.57864,-4.19009 -2.80181,-10.37595 -2.80181,-14.1777 0,-4.20467 -0.96539,-8.63952 -2.56366,-11.77458 -2.84616,-5.58244 -1.8316,-8.14488 2.34154,-5.9114 3.7057,1.98322 5.03117,1.74453 2.12211,-0.38267 -2.37174,-1.73427 -2.34145,-1.93325 0.98746,-6.74363 4.95941,-7.16632 8.0971,-16.85972 7.53038,-23.26019 -0.27309,-3.08325 -2.94599,-1.55531 -9.14403,5.22632 -3.43419,3.75751 -8.61787,7.90214 -11.52039,9.21095 -5.05744,2.28056 -5.37023,2.28569 -7.47151,0.0963 -2.08144,-2.1687 -2.02872,-2.24708 1.01957,-1.51732 1.84499,0.4417 1.02519,-0.30536 -1.92675,-1.75548 -2.82584,-1.38821 -6.78061,-2.53967 -8.78546,-2.5583 -3.5246,-0.0326 -3.61557,-0.19887 -2.79379,-5.06308 1.08614,-6.42802 -0.4524,-17.06146 -2.38436,-16.48177 -0.79821,0.23953 -4.03176,4.30228 -7.18785,9.02898 l -5.74013,8.59546 -2.25054,-4.62955 c -2.69769,-5.54608 -4.47441,-7.02984 -14.53093,-12.13855 -10.12336,-5.14275 -14.00803,-9.02754 -17.40501,-17.39697 -3.04071,-7.49202 -5.70783,-9.51555 -3.5966,-2.72957 3.05814,9.82944 3.17654,9.41208 -1.62704,5.74815 -4.84154,-3.69281 -14.86067,-8.56686 -17.70471,-8.61152 -0.98907,-0.0155 0.57021,1.68936 3.46547,3.78661 2.89529,2.09725 5.95992,5.1171 6.81322,6.71151 1.53344,2.86513 1.51808,2.87222 -1.53605,0.68776 -6.42058,-4.5919 -10.618,-6.28795 -19.99274,-8.08166 -13.29213,-2.54317 -14.86901,-2.25537 -8.14856,1.48788 3.17916,1.77076 4.33778,2.82649 2.57169,2.34421 -1.76638,-0.48229 -9.50943,-1.23518 -17.20699,-1.67253 -16.37151,-0.92999 -18.49336,-2.30232 -13.78163,-8.91925 1.55374,-2.18201 3.59542,-6.16194 4.53858,-8.84166 1.68418,-4.78554 1.82015,-4.86365 7.65884,-4.48506 6.48026,0.42025 7.00702,-0.22479 3.85619,-4.72321 -1.57836,-2.25341 -1.89885,-4.60624 -1.30859,-9.62842 0.98987,-8.42302 -0.81992,-15.02274 -5.2959,-19.30499 -9.90811,-9.47917 -14.62398,-13.61304 -15.52642,-13.61304 z m -107.07392,91.29329 c 2.34277,-0.11591 5.35863,1.09067 8.75066,3.57252 4.86539,3.56001 10.437,9.06958 9.38489,9.2832 -0.28606,0.0581 -2.25594,0.37132 -4.37534,0.6931 -7.70697,1.17003 -12.15359,3.30316 -15.99204,7.67491 -2.15477,2.45411 -3.98284,5.16524 -4.06492,6.02377 -0.0822,0.85851 -0.42396,0.50565 -0.75731,-0.78409 -0.33334,-1.28967 0.0223,-7.01003 0.78943,-12.71121 0.76723,-5.70119 2.04501,-11.14939 2.83929,-12.10643 0.85642,-1.03186 2.01962,-1.57616 3.42534,-1.64577 z m 179.99884,78.82828 c 1.46892,-0.0149 2.31064,0.59061 3.91505,1.80098 2.30512,1.73893 3.18955,3.53154 3.02929,6.14419 -0.12441,2.02924 -0.63799,8.91299 -1.14,15.29629 -0.74145,9.42852 -0.525,12.35228 1.14535,15.5826 2.85209,5.51511 8.82892,10.23356 16.33994,12.90122 5.31193,1.88664 6.36932,2.793 6.40645,5.49125 0.0248,1.77695 0.87154,4.67506 1.88126,6.44123 3.41208,5.96882 1.19662,7.27479 -3.39055,1.99902 -4.03644,-4.64228 -12.16747,-7.50356 -18.59049,-6.54026 -4.94401,0.74134 -6.1363,0.27434 -15.42741,-6.04519 l -10.06996,-6.848 -0.0481,-20.86512 -0.0508,-20.86781 8.33053,-2.57167 c 4.10612,-1.26824 6.20062,-1.90398 7.66954,-1.91873 z m -17.56556,48.24374 c 0.53157,6e-5 3.34975,2.15381 6.26194,4.78478 l 5.29322,4.78208 -6.25392,1.41831 c -8.23066,1.86639 -9.91314,0.5353 -7.79264,-6.16828 0.838,-2.64932 1.95981,-4.81689 2.4914,-4.81689 z m 49.89755,23.16385 0,0.003 c 0.0897,-0.01 0.18625,-0.008 0.28901,0 0.3796,0.0293 0.84777,0.15876 1.41027,0.37464 1.64427,0.63101 7.17715,9.67557 7.17715,11.73178 0,0.38135 -1.66533,0.6931 -3.70097,0.6931 -3.32882,0 -3.84978,-0.59586 -5.19419,-5.93547 -1.22632,-4.87249 -1.32869,-6.75548 0.0188,-6.86673 z m -34.4648,20.70724 c 0.0874,-0.005 0.16665,-0.004 0.23817,0.005 0.26382,0.0322 0.41693,0.16295 0.46831,0.39071 0.41976,1.87632 -9.41854,17.74738 -19.44415,31.36325 -3.31766,4.5058 -6.3765,9.56333 -6.79716,11.23939 -0.71345,2.84223 -1.36749,3.04533 -9.72207,3.04533 l -8.95672,0 0.69845,-4.81687 c 0.38404,-2.64928 0.72017,-4.96149 0.74662,-5.13801 0.0267,-0.17666 1.07773,-0.32113 2.3335,-0.32113 4.01657,0 8.16119,-3.97959 14.57643,-13.99571 5.18296,-8.09204 7.96449,-10.9141 16.21416,-16.45501 5.21255,-3.50082 8.33306,-5.22975 9.64446,-5.31731 z m -345.42663,41.54829 3.55111,11.42403 3.55112,11.42137 -4.41012,12.34192 c -6.41793,17.96325 -10.77858,26.00552 -15.97333,29.45523 -5.57885,3.70469 -5.99087,2.61962 -3.84279,-10.11544 0.82874,-4.91401 2.0023,-8.62798 2.60914,-8.25293 2.26179,1.39786 4.1775,-5.35927 4.08364,-14.41051 -0.0534,-5.14039 0.43875,-9.67805 1.09451,-10.08333 0.67065,-0.41458 1.25003,2.24625 1.32196,6.08264 0.0966,5.16122 0.36014,6.03774 1.08916,3.60731 0.52989,-1.76619 0.68736,-6.1937 0.34788,-9.83982 -0.73024,-7.8452 -0.0174,-11.09434 3.76253,-17.13472 z"
     id="path7286"
     inkscape:connector-curvature="0"
     sodipodi:nodetypes="cccccccccccccssssscscssccccsscscscscccccscccccsssscccsscscccssccccsssscssscscsssssccssccsccsscsscccsscccccccccsccccccsscccsccccsccsssssccccccscsscsccssccscsssssccccscsccccscsccccsccccccccsccccscccsscccccscscccssccccccccscccccccccsccccc" />
  <g
     id="g8712"
     transform="translate(-10,12)">
    <path
       sodipodi:nodetypes="scscscccccccccccccccccsccccccccscccsccscccccccccccccccccccccsccsssssccccssccsccscccccsccssscccccccccscscccccsscccsccccccscccccccscccsccccccscssscscsccccccscscccsscccccsscccsccccccccccsscscccscccccscsccccccccccccccsscscscscc"
       inkscape:connector-curvature="0"
       id="path7232"
       d="m 919.87001,439.8751 c -11.806,-0.12523 -25.88051,3.35692 -29.67733,9.15208 -1.788,2.72848 -0.89248,6.70686 2.97041,13.20897 4.22533,7.1122 4.3742,11.54297 0.47632,14.19642 -1.45594,0.99128 -3.20085,1.79831 -3.88026,1.79831 -1.74022,0 -5.68191,3.83414 -5.02829,4.89181 0.52904,0.85611 5.34048,0.84675 12.20813,0.23014 l -0.0884,4.4904 c -0.82705,-0.99469 -0.0959,9.74551 1.67253,13.62642 0.90223,1.97823 2.99458,4.94965 4.64829,6.6018 2.40264,2.40048 4.37941,3.46598 4.72323,2.76436 l 0.23548,2.47801 -4.11575,0.47367 c -7.85512,0.90848 -19.56517,5.4169 -24.84441,9.56419 -4.35607,3.42194 -5.29769,6.24306 -5.32532,15.93317 -0.0234,5.63218 -0.51519,10.01152 -1.57888,13.84586 -0.85544,3.08398 -1.56884,6.31644 -1.58153,7.18518 -0.0262,1.71322 -2.65975,10.89023 -4.60816,16.0429 -4.11807,10.89077 -5.15248,21.62442 -2.96773,30.84142 0.75644,3.19033 1.21713,8.77411 1.19351,14.41853 -0.0236,5.06652 -0.059,8.76922 0.41211,10.20108 l -9.87728,-9.53207 c -6.95665,-7.48912 -14.22641,-10.41077 -26.62664,-14.3436 -5.16021,-1.63664 -7.6522,-1.90539 -17.64318,-1.92408 -11.54097,-0.0212 -11.67257,-10e-4 -16.95543,2.59845 -2.92865,1.44169 -6.52532,3.75044 -7.99334,5.1273 -9.27066,8.69589 -16.89401,13.48989 -21.3923,13.46318 -4.78208,2.89647 -11.35029,-2.52437 -29.62651,-7.21729 -1.58192,1.58187 3.52703,6.01307 3.52703,6.01307 2.62548,1.43146 7.22586,4.29678 9.54813,7.12096 1.4108,3.441 4.80361,5.72776 6.658,8.95137 0.47284,0.89962 1.26543,4.68715 1.75817,8.41349 0.46191,3.49344 1.16459,9.9525 1.32463,9.55081 -0.8468,6.4625 -5.90212,12.92274 -2.30675,19.38527 -0.49128,-0.0323 -0.16832,0.93465 1.29521,2.91688 4.5205,6.12703 12.64282,28.19488 14.94572,40.60365 0.32707,1.76228 1.19242,5.90671 1.92407,9.21094 1.50179,6.78191 1.783,21.30266 0.49507,25.63117 -1.19528,4.01686 -1.02771,8.95607 0.42281,12.42756 1.96306,4.69801 8.28044,10.33539 13.2946,11.86826 5.44804,1.66563 13.24707,1.29042 16.85373,-0.80818 3.80754,-2.21555 5.55111,-6.08649 5.10589,-11.35177 -0.19851,-2.35935 -0.54979,-4.47834 -0.7814,-4.70984 l 0.86972,-9.45447 c -0.46247,-2.65291 0.22339,-5.82562 0.19267,-8.75603 -0.11345,-10.61296 2.27074,-22.01683 4.79815,-26.73904 0.51822,-0.96829 0.6913,-2.16311 0.38268,-2.66266 -0.32377,-0.52386 -0.20859,-0.69258 0.27563,-0.39338 0.46175,0.2853 1.05122,-0.31808 1.30858,-1.34338 0.54896,-2.18713 7.31096,-9.65789 8.82292,-9.91475 0.10167,-0.0167 0.18052,-10e-4 0.23014,0.0482 l 1.18281,18.94907 c -2.57488,17.30963 -5.71446,31.72616 -9.16278,42.05405 -1.3607,4.07573 -1.61758,7.05931 -1.67788,19.62612 -0.0637,13.40503 0.10454,15.34104 1.75817,20.31119 1.006,3.02193 2.39521,6.35673 3.08548,7.40996 0.69006,1.05334 1.90319,2.28666 1.92943,1.91606 4.52687,0.86191 -1.25723,12.03424 -8.67306,24.83905 -0.67967,0.007 -1.27541,1.1821 -6.31011,12.4115 -4.57794,10.21096 -6.91362,17.20002 -9.10927,27.23144 -3.09172,14.12735 -6.20027,20.45088 -14.37303,29.24115 -5.87766,6.3216 -10.62571,13.17736 -13.59432,19.62344 -1.42001,3.08398 -3.26048,7.04726 -4.08899,8.80954 -2.29418,4.88042 -3.97127,9.1275 -5.68928,14.41854 -0.85831,2.64337 -3.17163,7.64691 -5.13801,11.11896 -1.9664,3.47203 -3.57252,6.56626 -3.57252,6.87476 0,0.30849 -2.99276,3.62129 -6.64998,7.36181 -8.26445,8.4526 -9.3715,10.66713 -9.3715,18.74842 0,6.302 -0.64849,7.92 -4.99886,12.4998 -0.55934,0.5888 -2.50485,2.8736 -4.32449,5.0765 -1.81988,2.2028 -4.64459,5.4496 -6.278,7.2119 -4.73601,5.1091 -9.79943,12.5968 -10.39376,15.3739 -0.52864,2.4705 -0.42539,2.5909 2.91422,3.5511 1.9019,0.5468 5.43637,1.2335 7.85955,1.528 11.3479,1.3792 18.51244,0.569 21.19962,-2.4004 1.58165,-1.7476 3.5643,-9.9313 3.60731,-14.8976 0.0236,-1.7881 -0.5039,-3.9483 -1.1507,-4.8034 -2.62735,-3.4738 -0.80675,-7.1737 5.4859,-11.1511 3.01751,-1.9074 4.18894,-3.4377 6.87208,-8.9541 1.77945,-3.6589 3.23801,-6.95873 3.23801,-7.33243 0,-0.87174 3.57306,-9.78568 6.00237,-14.97242 1.03154,-2.20225 1.76263,-4.11659 1.62437,-4.25491 13.4008,-31.60864 30.02142,-46.34239 46.2715,-62.15651 17.17024,-17.30155 17.4453,-17.59625 28.6096,-30.9003 1.98271,-2.36255 4.7457,-5.51639 6.14421,-7.00856 1.39874,-1.49219 4.10324,-4.76403 6.00771,-7.27081 1.90449,-2.50676 3.71723,-4.75051 4.03013,-4.98547 0.31312,-0.23489 1.83589,-3.20733 3.38519,-6.60717 1.54953,-3.3998 3.30389,-6.18434 3.89633,-6.18434 1.11092,0 3.36379,2.01306 3.36379,3.14436 0,0.35024 2.682,3.63806 4.48505,5.45912 4.11174,4.15285 10.1444,6.23081 17.94824,6.18167 5.71558,-0.0363 13.21698,-1.64179 13.21698,-2.83125 0,0 0.90605,-1.83261 3.24873,2.90351 2.34232,4.73608 3.63552,4.7932 4.35392,6.77574 2.32137,6.40669 8.54454,25.12241 9.58559,28.83172 5.45315,19.43479 6.08428,23.43261 5.83913,36.84914 0.31203,9.206 4.1613,18.15549 4.99083,19.40668 l 6.18167,8.31716 c -1.52204,-0.0937 -2.34334,2.60326 -4.43421,4.58406 -2.80302,2.65516 -9.7408,11.40068 -9.7408,12.2777 0,0.27984 -2.83254,3.24651 -6.29942,6.59645 -4.92921,4.76321 -6.78967,7.22916 -8.53658,11.30096 -2.92173,6.8102 -5.45405,10.7619 -9.888,15.4461 -1.99479,2.1074 -5.17105,5.8896 -7.06207,8.4082 -3.0848,4.1084 -3.4397,5.0391 -3.44675,9.037 0,3.8235 0.29892,4.7504 2.18901,6.5536 2.58785,2.4688 5.25423,3.5888 11.81741,4.9614 2.86493,0.5994 5.72977,0.7433 7.08885,0.3586 2.29166,-0.6487 6.12814,-4.1359 6.12814,-5.5688 0,-0.4227 0.67757,-2.2937 1.50661,-4.1613 2.58482,-5.8234 3.18426,-8.0469 3.4976,-13.0056 0.38258,-6.0472 1.96746,-9.3468 7.5625,-15.7458 2.44493,-2.7964 5.51499,-7.4257 6.82659,-10.2894 2.83299,-6.1853 6.35524,-10.89123 6.83731,-15.8021 l 1.8197,4.34589 c -0.23387,0.2342 0.59737,3.64567 0.67971,6.84265 0.34095,13.24606 4.34725,31.09866 8.21814,36.61906 l 2.50746,3.5725 -1.66718,4.8383 c -0.91698,2.6615 -2.93746,8.4447 -4.4904,12.8504 -3.84289,10.9025 -3.80722,11.2011 1.47985,12.465 3.7438,0.895 14.9068,0.8472 18.22654,-0.075 1.64811,-0.4577 4.02327,-2.0459 5.4083,-3.6233 2.14636,-2.4447 2.46723,-3.414 2.4566,-7.394 0,-3.8926 -0.52166,-5.4728 -3.4066,-10.581 l -3.39323,-6.0078 -0.0267,-12.0154 c -0.0274,-12.4527 -0.71057,-15.7682 -4.38604,-21.2317 -1.79442,-2.6674 -8.88878,-21.876 -11.75318,-27.68643 -0.0563,-2.13585 -2.23088,-8.48863 1.09985,-11.91377 3.74684,-2.45743 4.53164,-2.61143 7.3832,-5.65715 2.06548,-2.20279 8.07003,-9.22916 13.34009,-15.6174 8.69263,-10.53714 11.14392,-13.69834 13.57023,-17.50135 0.44057,-0.69058 1.24779,-1.74612 1.79831,-2.34689 1.1896,-1.29765 1.27093,-6.44899 0.17661,-11.19122 -0.48388,-2.09668 0.5736,-10.52379 1.0169,-12.49713 l 10.29479,10.71756 c 3.9744,4.40753 5.8096,7.87255 7.1825,13.59164 1.6245,6.76868 3.7089,10.3927 8.938,15.52909 3.2358,3.17847 5.8146,6.75041 7.9211,10.97178 1.718,3.44271 3.1229,6.59041 3.1229,6.99519 0,0.40469 0.6858,2.49419 1.528,4.64562 1.4744,3.76646 2.7592,8.44131 6.567,23.93722 0.9744,3.9651 2.4643,8.44902 3.3157,9.9656 6.2412,11.12054 7.124,14.60344 6.5081,25.75694 -0.4167,7.5441 -1.7691,14.7129 -3.9418,20.8705 -0.6377,1.8077 -1.1614,4.4548 -1.1614,5.882 0,3.0364 2.4735,6.5379 5.0202,7.1048 3.1772,0.7074 17.915,-0.076 19.7332,-1.049 2.5494,-1.3641 4.8781,-5.6095 4.8624,-8.855 -0.023,-3.0916 -2.5025,-9.193 -4.6269,-11.3545 -5.3885,-5.483 -5.9848,-9.0238 -3.717,-21.981 1.5734,-8.991 0.882,-11.8023 -5.1594,-21.08458 -4.7713,-7.33099 -8.748,-15.16724 -14.0547,-27.68637 -5.0382,-11.88614 -7.1022,-19.51593 -11.7023,-43.25292 -3.8685,-19.96434 -3.4801,-19.03481 -11.0869,-26.62666 -3.2786,-3.27215 -6.523,-7.47737 -7.9585,-10.32151 -2.2148,-4.38753 -3.4024,-6.22685 -4.3914,-5.96489 l 8.5018,-11.92714 c 0.8276,6.98809 4.4475,11.97826 12.564,17.33274 3.1498,2.07792 6.1474,3.41015 15.3632,6.82124 3.1507,1.16616 4.3326,2.81436 7.1022,9.89335 1.3718,3.50691 3.3652,8.39993 4.4316,10.87812 0.7523,1.7478 1.3912,3.35461 1.7126,4.27364 0.5132,-0.20907 1.0401,-0.3875 1.5789,-0.53789 -0.673,-2.78669 -0.8627,-7.04477 -0.8911,-17.45049 -0.056,-20.04138 1.6023,-28.08016 9.6632,-46.8629 8.6592,-20.17666 7.9132,-34.33472 -3.1444,-59.85779 -2.159,-4.98363 -3.4527,-7.46192 -4.089,-7.71771 -0.089,-0.0367 -0.1691,-0.0278 -0.2328,0.0267 l -2.7429,-4.91858 c 2.1653,-7.20607 1.0042,-5.18402 0.7332,-16.33191 -0.3194,-13.13295 -1.2293,-17.47446 -5.6518,-26.94778 -6.5031,-13.92889 -17.9883,-25.80188 -31.7031,-32.7762 -2.0154,-1.02476 -3.3146,-1.50127 -3.8749,-1.51197 l -11.4401,-6.43054 c -5.7192,-3.7041 -12.49619,-10.49601 -20.51726,-20.55737 -6.69082,-8.39298 -14.23872,-18.49169 -16.61558,-22.23259 -0.76973,-1.21159 -4.20202,-5.57955 -4.53054,-5.57955 l -1.00084,-1.0276 c 2.38589,-2.53686 6.28805,-6.796 11.90573,-12.58276 9.91011,-10.20872 12.03754,-13.62969 13.61572,-21.86062 2.15776,-11.25305 1.17123,-30.4503 -2.26394,-44.05842 -3.85351,-15.2654 -10.31901,-25.85582 -20.14527,-33.00099 -2.28287,-1.66 -4.27117,-3.29073 -4.41815,-3.62872 -0.14645,-0.33798 -0.59083,-0.6155 -0.99014,-0.6155 -0.3992,0 -2.80084,-1.44153 -5.3387,-3.20322 l -21.40302,-9.98967 c -0.16779,-2.02769 -1.13375,-3.59866 -0.23549,-4.83026 4.38053,-6.01105 5.49,-13.07886 4.33519,-17.62177 -1.5956,-6.27678 -2.29424,-8.81134 -4.99083,-10.2894 l 0.93663,-1.15605 c 3.48716,-0.80053 3.9133,-0.23229 6.72757,-1.09182 2.26627,-0.6922 7.76009,-2.25136 6.3904,-3.11759 -0.64774,-0.41093 -2.15005,-0.75092 -3.33703,-0.75733 -5.3618,-0.0304 -7.66891,-4.90692 -8.41349,-17.80373 -0.33626,-5.82374 -0.7031,-7.29894 -2.23182,-8.94869 -2.73992,-2.95639 -9.01014,-4.33228 -16.09374,-4.40746 z m 41.92561,150.07799 c 0.66686,1.30939 2.13416,4.48703 2.34422,7.2066 0.59865,7.74085 -2.4832,13.06261 -7.30026,18.51823 -1.10336,1.07973 -1.8052,1.48712 -2.21041,1.40492 -2.16679,-0.43939 2.93683,-9.85899 4.23885,-14.83332 1.06672,-4.07612 2.9276,-12.29643 2.9276,-12.29643 z m 577.03298,109.57337 c -0.2519,0.0438 -0.5053,0.0867 -0.7572,0.13112 0.3513,0.23159 0.6247,0.44261 1.0007,0.6824 -0.08,-0.27167 -0.1614,-0.54185 -0.2435,-0.81352 z m -599.77669,144.3218 35.66902,34.67352 c -0.29594,-0.011 -0.74286,1.46983 -1.15071,4.43421 -0.31778,2.3117 -1.56389,6.2346 -2.7697,8.72391 -1.9833,4.09391 -6.84521,11.69334 -8.12448,12.69784 -0.28048,0.22024 -1.44603,2.08177 -2.58773,4.13181 -3.4844,6.25667 -6.81611,21.46547 -7.1504,27.57665 -0.64354,0.32374 -0.69442,1.13732 -1.07845,1.13732 -0.384,0 -1.4572,-2.07222 -2.379,-4.60548 -2.85945,-7.85853 -4.56825,-13.21005 -5.1728,-16.17669 -0.31949,-1.56774 -1.16056,-5.73194 -1.86788,-9.25645 -1.52937,-7.62187 -1.64706,-19.42298 -0.33717,-33.46662 1.03698,-11.11878 0.0625,-22.69818 -2.29606,-27.28496 -0.78766,-1.53152 -0.99429,-2.42483 -0.75464,-2.58506 z"
       style="fill:#000000;fill-opacity:1" />
    <path
       inkscape:connector-curvature="0"
       id="path8671"
       d="m 804.25961,775.61043 26.51875,-10.73378"
       style="fill:none;fill-rule:evenodd;stroke:#000000;stroke-width:4.11040592;stroke-linecap:butt;stroke-linejoin:miter;stroke-miterlimit:4;stroke-dasharray:none;stroke-opacity:1" />
    <path
       inkscape:connector-curvature="0"
       id="path8673"
       d="m 788.47464,773.71623 42.30372,-21.46756"
       style="fill:none;fill-rule:evenodd;stroke:#000000;stroke-width:4.11040592;stroke-linecap:butt;stroke-linejoin:miter;stroke-miterlimit:4;stroke-dasharray:none;stroke-opacity:1" />
  </g>
</svg>
